{
	"asset":{
		"generator":"Khronos glTF Blender I/O v3.6.27",
		"version":"2.0"
	},
	"extensionsUsed":[
		"KHR_materials_specular",
		"KHR_materials_ior",
		"KHR_materials_clearcoat",
		"KHR_materials_transmission"
	],
	"scene":0,
	"scenes":[
		{
			"name":"Scene",
			"nodes":[
				35
			]
		}
	],
	"nodes":[
		{
			"name":"feet_R",
			"rotation":[
				-0.9955370426177979,
				0.0010250320192426443,
				0.011105949990451336,
				0.09371060132980347
			],
			"scale":[
				1,
				1,
				1.0000044107437134
			],
			"translation":[
				-1.7053025658242404e-10,
				-7.479874497562378e-09,
				-1.076841726899147e-09
			]
		},
		{
			"children":[
				0
			],
			"name":"leg3_control_R",
			"rotation":[
				-0.7052318453788757,
				-0.00783124752342701,
				0.007790784351527691,
				0.7088906764984131
			],
			"translation":[
				-0.030485844239592552,
				0.015371759422123432,
				-0.06616594642400742
			]
		},
		{
			"name":"feet_L",
			"rotation":[
				-0.9956377744674683,
				-0.000990664935670793,
				-0.010422207415103912,
				0.09271329641342163
			],
			"scale":[
				1,
				1.0000001192092896,
				1.0000028610229492
			],
			"translation":[
				-2.446540747769177e-10,
				-1.363769186468744e-08,
				-1.4551915228366852e-10
			]
		},
		{
			"children":[
				2
			],
			"name":"leg3_control_L",
			"rotation":[
				-0.7045247554779053,
				0.007504990324378014,
				-0.007451348938047886,
				0.7096006274223328
			],
			"translation":[
				0.030592480674386024,
				0.015371759422123432,
				-0.06616594642400742
			]
		},
		{
			"name":"paw3_R",
			"rotation":[
				-0.9813501834869385,
				0.0003435733378864825,
				0.001967791700735688,
				0.19221821427345276
			],
			"scale":[
				1,
				1,
				1.0000007152557373
			],
			"translation":[
				-8.247953431350652e-10,
				-9.532670208756144e-10,
				-2.6388956991807433e-11
			]
		},
		{
			"children":[
				4
			],
			"name":"paw_control_R",
			"rotation":[
				-0.7071055173873901,
				-0.0013408708618953824,
				0.001340847578831017,
				0.7071055173873901
			],
			"scale":[
				0.9999999403953552,
				1,
				0.9999999403953552
			],
			"translation":[
				-0.028879350051283836,
				0.019633622840046883,
				0.1526772528886795
			]
		},
		{
			"name":"paw3_L",
			"rotation":[
				-0.9813511371612549,
				-0.00032847371767275035,
				-0.001463553518988192,
				0.19221802055835724
			],
			"scale":[
				0.9999999403953552,
				1,
				1.0000015497207642
			],
			"translation":[
				-1.1885834538816198e-09,
				-1.3893103556483766e-08,
				-4.786367413522896e-10
			]
		},
		{
			"children":[
				6
			],
			"name":"paw_control_L",
			"rotation":[
				-0.7071058750152588,
				0.001131462398916483,
				-0.0011314857983961701,
				0.7071058750152588
			],
			"translation":[
				0.030539238825440407,
				0.019633622840046883,
				0.1526772528886795
			]
		},
		{
			"name":"Bone.004",
			"rotation":[
				-5.326326046883878e-08,
				-3.1217334139910236e-07,
				0.1376093029975891,
				0.9904866218566895
			],
			"scale":[
				0.9999999403953552,
				0.9999999403953552,
				1
			],
			"translation":[
				7.174981497826138e-09,
				0.04880646616220474,
				3.654321290014195e-11
			]
		},
		{
			"children":[
				8
			],
			"name":"Bone.002",
			"rotation":[
				-1.686735231487546e-07,
				5.745973652437897e-08,
				0.26137417554855347,
				0.965237557888031
			],
			"translation":[
				3.721712493742757e-09,
				0.07476172596216202,
				-7.863043549605209e-12
			]
		},
		{
			"children":[
				9
			],
			"name":"Bone.001",
			"rotation":[
				5.793715018853618e-08,
				4.648351747960078e-08,
				-0.0391494482755661,
				0.9992333650588989
			],
			"translation":[
				1.6640619993069095e-09,
				0.12012030184268951,
				-7.58948459633757e-12
			]
		},
		{
			"name":"tail5",
			"rotation":[
				3.1224080885294825e-05,
				6.491827964083541e-09,
				2.2472443106380524e-07,
				1
			],
			"scale":[
				1,
				1,
				1.0000001192092896
			],
			"translation":[
				7.207745511550456e-11,
				0.03353734686970711,
				1.3140493138052989e-09
			]
		},
		{
			"children":[
				11
			],
			"name":"tail4",
			"rotation":[
				0.019977465271949768,
				-9.695796165942738e-08,
				-4.586394425132312e-06,
				0.999800443649292
			],
			"scale":[
				1,
				1.000000238418579,
				1.0000001192092896
			],
			"translation":[
				2.2737367544323206e-12,
				0.03319760039448738,
				3.5583695989771513e-09
			]
		},
		{
			"children":[
				12
			],
			"name":"tail3",
			"rotation":[
				0.07428012788295746,
				-3.1352538343298875e-08,
				-1.598900962562766e-05,
				0.9972374439239502
			],
			"scale":[
				1,
				1.0000001192092896,
				1
			],
			"translation":[
				-1.5734258340671659e-10,
				0.03812859579920769,
				-3.268780801590765e-09
			]
		},
		{
			"children":[
				13
			],
			"name":"tail2",
			"rotation":[
				0.020377961918711662,
				2.89006010234516e-07,
				-4.422824986249907e-06,
				0.9997923374176025
			],
			"translation":[
				1.3005774235352874e-10,
				0.049428876489400864,
				6.7407768256089184e-09
			]
		},
		{
			"children":[
				14
			],
			"name":"tail1",
			"rotation":[
				0.7041953802108765,
				0.0632433295249939,
				-0.704349160194397,
				0.0632566511631012
			],
			"scale":[
				1.0000072717666626,
				1.0000001192092896,
				1
			],
			"translation":[
				0.005652344319969416,
				-0.024894854053854942,
				0.0009291777387261391
			]
		},
		{
			"name":"leg3_R",
			"rotation":[
				-0.2990587651729584,
				-0.002110130852088332,
				-0.0017270371317863464,
				0.954230785369873
			],
			"translation":[
				2.1200321498326957e-09,
				0.06179919093847275,
				2.0395418687257916e-09
			]
		},
		{
			"children":[
				16
			],
			"name":"leg2_R",
			"rotation":[
				0.38522869348526,
				-0.020751718431711197,
				-0.03490443527698517,
				0.921927273273468
			],
			"scale":[
				1,
				0.9999999403953552,
				0.9999998807907104
			],
			"translation":[
				-4.94765117764473e-09,
				0.056478921324014664,
				-3.958120942115784e-09
			]
		},
		{
			"children":[
				17
			],
			"name":"leg1_R",
			"rotation":[
				0.4870615601539612,
				0.5180538296699524,
				-0.4389936923980713,
				0.5492503046989441
			],
			"scale":[
				1,
				1.0000001192092896,
				1
			],
			"translation":[
				0.024448208510875702,
				0.009007583372294903,
				0.02579052373766899
			]
		},
		{
			"name":"paw2_R",
			"rotation":[
				-0.08624216914176941,
				-0.004348574671894312,
				0.006907093804329634,
				0.9962407946586609
			],
			"translation":[
				6.984919309616089e-10,
				0.08751670271158218,
				-1.5221303328871727e-08
			]
		},
		{
			"children":[
				19
			],
			"name":"paw1_R",
			"rotation":[
				0.5505277514457703,
				0.44750022888183594,
				-0.5542820692062378,
				0.43524032831192017
			],
			"scale":[
				0.9999999403953552,
				1,
				1
			],
			"translation":[
				0.03777441754937172,
				0.21865181624889374,
				0.03009202890098095
			]
		},
		{
			"name":"leg3_L",
			"rotation":[
				-0.2990177571773529,
				-0.00461001880466938,
				0.017010357230901718,
				0.9540848135948181
			],
			"scale":[
				1,
				1,
				0.9999998807907104
			],
			"translation":[
				-1.6298145055770874e-09,
				0.06184148043394089,
				-1.8372702470514923e-08
			]
		},
		{
			"children":[
				21
			],
			"name":"leg2_L",
			"rotation":[
				0.38414084911346436,
				0.03302782401442528,
				0.04035601019859314,
				0.9218006134033203
			],
			"scale":[
				0.9999998807907104,
				0.9999999403953552,
				1
			],
			"translation":[
				8.149072527885437e-10,
				0.05674787238240242,
				3.0704541131854057e-09
			]
		},
		{
			"children":[
				22
			],
			"name":"leg1_L",
			"rotation":[
				0.42801734805107117,
				0.5611889958381653,
				-0.49706894159317017,
				0.5047678351402283
			],
			"scale":[
				0.9999998807907104,
				0.9999997615814209,
				1
			],
			"translation":[
				0.024448232725262642,
				0.009007585234940052,
				-0.021531496196985245
			]
		},
		{
			"name":"paw2_L",
			"rotation":[
				-0.08723466098308563,
				-0.006271571386605501,
				-0.037999894469976425,
				0.9954430460929871
			],
			"scale":[
				0.9999999403953552,
				0.9999999403953552,
				1
			],
			"translation":[
				-8.731149137020111e-10,
				0.08647143095731735,
				1.008811523206532e-08
			]
		},
		{
			"children":[
				24
			],
			"name":"paw1_L",
			"rotation":[
				0.5552923083305359,
				0.43677011132240295,
				-0.5503526926040649,
				0.4449654817581177
			],
			"scale":[
				1.000000238418579,
				1.0000001192092896,
				1.0000001192092896
			],
			"translation":[
				0.03777444362640381,
				0.21865180134773254,
				-0.027721496298909187
			]
		},
		{
			"name":"leg2_pole2_R",
			"rotation":[
				-0.7065145969390869,
				0.02698674239218235,
				0.7066684365272522,
				0.026992473751306534
			],
			"scale":[
				1.000008463859558,
				1,
				1
			],
			"translation":[
				0.11001520603895187,
				-0.09398242831230164,
				0.04536600783467293
			]
		},
		{
			"name":"leg2_pole2_L",
			"rotation":[
				-0.7067838907241821,
				0.018649663776159286,
				0.7069376707077026,
				0.018653767183423042
			],
			"scale":[
				1.0000017881393433,
				0.9999997019767761,
				0.9999999403953552
			],
			"translation":[
				0.10966630280017853,
				-0.09344307333230972,
				-0.04299544915556908
			]
		},
		{
			"name":"paw_pole_R",
			"rotation":[
				-0.7064839601516724,
				0.023518024012446404,
				0.706946611404419,
				0.023533480241894722
			],
			"scale":[
				1.0000048875808716,
				0.9999998211860657,
				0.9999998807907104
			],
			"translation":[
				0.1332029551267624,
				0.1109541654586792,
				0.05739695951342583
			]
		},
		{
			"name":"paw_pole_L",
			"rotation":[
				-0.7064840793609619,
				0.02351798117160797,
				0.7069464921951294,
				0.023533521220088005
			],
			"scale":[
				1.0000048875808716,
				0.9999999403953552,
				1
			],
			"translation":[
				0.13546039164066315,
				0.11080370843410492,
				-0.06173789128661156
			]
		},
		{
			"children":[
				10,
				15,
				18,
				20,
				23,
				25,
				26,
				27,
				28,
				29
			],
			"name":"pelvis",
			"rotation":[
				3.456514434674318e-07,
				-1.2070606736358513e-08,
				-0.6831895709037781,
				0.7302411198616028
			],
			"translation":[
				-0.10959571599960327,
				-0.039791956543922424,
				-5.6521763269756775e-08
			]
		},
		{
			"children":[
				30
			],
			"name":"CONTROLLER",
			"rotation":[
				0,
				-0.7071065306663513,
				0,
				0.7071070075035095
			],
			"translation":[
				-0.00040412097587250173,
				0.2364189624786377,
				0.0540541335940361
			]
		},
		{
			"mesh":0,
			"name":"Eye1",
			"skin":0
		},
		{
			"mesh":1,
			"name":"sculpt.001",
			"skin":0
		},
		{
			"children":[
				32,
				33,
				1,
				3,
				5,
				7,
				31
			],
			"name":"Armature.001"
		},
		{
			"children":[
				34
			],
			"name":"Domestic cat (rigged)"
		}
	],
	"materials":[
		{
			"doubleSided":true,
			"extensions":{
				"KHR_materials_specular":{
					"specularColorFactor":[
						0.06467339847937902,
						0.06467339847937902,
						0.06467339847937902
					]
				},
				"KHR_materials_ior":{
					"ior":1.4500000476837158
				}
			},
			"name":"Material.004",
			"pbrMetallicRoughness":{
				"baseColorTexture":{
					"index":0,
					"texCoord":1
				},
				"metallicFactor":0
			}
		},
		{
			"doubleSided":true,
			"extensions":{
				"KHR_materials_clearcoat":{
					"clearcoatFactor":1,
					"clearcoatRoughnessFactor":0.02545454539358616
				},
				"KHR_materials_transmission":{
					"transmissionFactor":1
				},
				"KHR_materials_specular":{
					"specularColorFactor":[
						1,
						1,
						1
					]
				},
				"KHR_materials_ior":{
					"ior":1.0999999046325684
				}
			},
			"name":"Material.005",
			"pbrMetallicRoughness":{
				"baseColorFactor":[
					0.800000011920929,
					0.800000011920929,
					0.800000011920929,
					0.6045454740524292
				],
				"metallicFactor":0,
				"roughnessFactor":0
			}
		},
		{
			"doubleSided":true,
			"name":"CAT_SINGLE_COLOR2.001",
			"pbrMetallicRoughness":{
				"baseColorTexture":{
					"index":1
				},
				"metallicFactor":0,
				"roughnessFactor":0.5
			}
		}
	],
	"meshes":[
		{
			"name":"Sphere",
			"primitives":[
				{
					"attributes":{
						"POSITION":0,
						"NORMAL":1,
						"TEXCOORD_0":2,
						"TEXCOORD_1":3,
						"JOINTS_0":4,
						"WEIGHTS_0":5
					},
					"indices":6,
					"material":0
				},
				{
					"attributes":{
						"POSITION":7,
						"NORMAL":8,
						"TEXCOORD_0":9,
						"TEXCOORD_1":10,
						"JOINTS_0":11,
						"WEIGHTS_0":12
					},
					"indices":13,
					"material":1
				}
			]
		},
		{
			"name":"mesh.001",
			"primitives":[
				{
					"attributes":{
						"COLOR_0":15,
						"POSITION":16,
						"NORMAL":17,
						"TEXCOORD_0":18,
						"JOINTS_0":19,
						"WEIGHTS_0":20
					},
					"indices":21,
					"material":2
				}
			]
		}
	],
	"textures":[
		{
			"sampler":0,
			"source":0
		},
		{
			"sampler":0,
			"source":1
		}
	],
	"images":[
		{
			"mimeType":"image/png",
			"name":"EyeV2_C",
			"uri":"EyeV2_C.png"
		},
		{
			"mimeType":"image/png",
			"name":"CAT_TEX_C",
			"uri":"CAT_TEX_C.png"
		}
	],
	"skins":[
		{
			"inverseBindMatrices":14,
			"joints":[
				1,
				0,
				3,
				2,
				5,
				4,
				7,
				6,
				31,
				30,
				10,
				9,
				8,
				15,
				14,
				13,
				12,
				11,
				18,
				17,
				16,
				20,
				19,
				23,
				22,
				21,
				25,
				24,
				26,
				27,
				28,
				29
			],
			"name":"Armature.001"
		}
	],
	"accessors":[
		{
			"bufferView":0,
			"componentType":5126,
			"count":1028,
			"max":[
				0.02308591641485691,
				0.2561146318912506,
				0.24068835377693176
			],
			"min":[
				-0.022871172055602074,
				0.2391844540834427,
				0.22423043847084045
			],
			"type":"VEC3"
		},
		{
			"bufferView":1,
			"componentType":5126,
			"count":1028,
			"type":"VEC3"
		},
		{
			"bufferView":2,
			"componentType":5126,
			"count":1028,
			"type":"VEC2"
		},
		{
			"bufferView":3,
			"componentType":5126,
			"count":1028,
			"type":"VEC2"
		},
		{
			"bufferView":4,
			"componentType":5121,
			"count":1028,
			"type":"VEC4"
		},
		{
			"bufferView":5,
			"componentType":5126,
			"count":1028,
			"type":"VEC4"
		},
		{
			"bufferView":6,
			"componentType":5123,
			"count":5760,
			"type":"SCALAR"
		},
		{
			"bufferView":7,
			"componentType":5126,
			"count":1422,
			"max":[
				0.023277664557099342,
				0.25630635023117065,
				0.2426036298274994
			],
			"min":[
				-0.023062920197844505,
				0.23899273574352264,
				0.2240387201309204
			],
			"type":"VEC3"
		},
		{
			"bufferView":8,
			"componentType":5126,
			"count":1422,
			"type":"VEC3"
		},
		{
			"bufferView":9,
			"componentType":5126,
			"count":1422,
			"type":"VEC2"
		},
		{
			"bufferView":10,
			"componentType":5126,
			"count":1422,
			"type":"VEC2"
		},
		{
			"bufferView":11,
			"componentType":5121,
			"count":1422,
			"type":"VEC4"
		},
		{
			"bufferView":12,
			"componentType":5126,
			"count":1422,
			"type":"VEC4"
		},
		{
			"bufferView":13,
			"componentType":5123,
			"count":5760,
			"type":"SCALAR"
		},
		{
			"bufferView":14,
			"componentType":5126,
			"count":32,
			"type":"MAT4"
		},
		{
			"bufferView":15,
			"componentType":5123,
			"count":9524,
			"normalized":true,
			"type":"VEC4"
		},
		{
			"bufferView":16,
			"componentType":5126,
			"count":9524,
			"max":[
				0.0491948127746582,
				0.2977590262889862,
				0.25632983446121216
			],
			"min":[
				-0.049499932676553726,
				6.905558257130906e-05,
				-0.2766309380531311
			],
			"type":"VEC3"
		},
		{
			"bufferView":17,
			"componentType":5126,
			"count":9524,
			"type":"VEC3"
		},
		{
			"bufferView":18,
			"componentType":5126,
			"count":9524,
			"type":"VEC2"
		},
		{
			"bufferView":19,
			"componentType":5121,
			"count":9524,
			"type":"VEC4"
		},
		{
			"bufferView":20,
			"componentType":5126,
			"count":9524,
			"type":"VEC4"
		},
		{
			"bufferView":21,
			"componentType":5123,
			"count":54048,
			"type":"SCALAR"
		}
	],
	"bufferViews":[
		{
			"buffer":0,
			"byteLength":12336,
			"byteOffset":0,
			"target":34962
		},
		{
			"buffer":0,
			"byteLength":12336,
			"byteOffset":12336,
			"target":34962
		},
		{
			"buffer":0,
			"byteLength":8224,
			"byteOffset":24672,
			"target":34962
		},
		{
			"buffer":0,
			"byteLength":8224,
			"byteOffset":32896,
			"target":34962
		},
		{
			"buffer":0,
			"byteLength":4112,
			"byteOffset":41120,
			"target":34962
		},
		{
			"buffer":0,
			"byteLength":16448,
			"byteOffset":45232,
			"target":34962
		},
		{
			"buffer":0,
			"byteLength":11520,
			"byteOffset":61680,
			"target":34963
		},
		{
			"buffer":0,
			"byteLength":17064,
			"byteOffset":73200,
			"target":34962
		},
		{
			"buffer":0,
			"byteLength":17064,
			"byteOffset":90264,
			"target":34962
		},
		{
			"buffer":0,
			"byteLength":11376,
			"byteOffset":107328,
			"target":34962
		},
		{
			"buffer":0,
			"byteLength":11376,
			"byteOffset":118704,
			"target":34962
		},
		{
			"buffer":0,
			"byteLength":5688,
			"byteOffset":130080,
			"target":34962
		},
		{
			"buffer":0,
			"byteLength":22752,
			"byteOffset":135768,
			"target":34962
		},
		{
			"buffer":0,
			"byteLength":11520,
			"byteOffset":158520,
			"target":34963
		},
		{
			"buffer":0,
			"byteLength":2048,
			"byteOffset":170040
		},
		{
			"buffer":0,
			"byteLength":76192,
			"byteOffset":172088,
			"target":34962
		},
		{
			"buffer":0,
			"byteLength":114288,
			"byteOffset":248280,
			"target":34962
		},
		{
			"buffer":0,
			"byteLength":114288,
			"byteOffset":362568,
			"target":34962
		},
		{
			"buffer":0,
			"byteLength":76192,
			"byteOffset":476856,
			"target":34962
		},
		{
			"buffer":0,
			"byteLength":38096,
			"byteOffset":553048,
			"target":34962
		},
		{
			"buffer":0,
			"byteLength":152384,
			"byteOffset":591144,
			"target":34962
		},
		{
			"buffer":0,
			"byteLength":108096,
			"byteOffset":743528,
			"target":34963
		}
	],
	"samplers":[
		{
			"magFilter":9729,
			"minFilter":9987
		}
	],
	"buffers":[
		{
			"byteLength":851624,
			"uri":"cat.bin"
		}
	]
}
